<svg xmlns="http://www.w3.org/2000/svg" xmlns:xlink="http://www.w3.org/1999/xlink" width="558.72" height="303.99" font-family="noto sans,sans-serif" font-size="11.66" style="background:#fff" viewBox="0 214 419.04 228">
<defs>
<clipPath id="a">
<path d="M24.1 373.4c0-1.3.3-2.6.8-3.8a9.8 9.8 0 0 1 2.1-3.3 9.9 9.9 0 0 1 3.3-2.1 9.9 9.9 0 0 1 3.8-.8 9.9 9.9 0 0 1 3.8.8 9.8 9.8 0 0 1 3.3 2.1 9.8 9.8 0 0 1 2.1 3.3 9.9 9.9 0 0 1 .8 3.8 9.9 9.9 0 0 1-.8 3.8 9.8 9.8 0 0 1-2.1 3.3 10 10 0 0 1-7.1 2.9 10 10 0 0 1-9.2-6.2 9.9 9.9 0 0 1-.8-3.8Zm0 0"/>
</clipPath>
<clipPath id="b">
<path d="M13.3 292.7V233a5 5 0 0 1 1.5-3.6 4.9 4.9 0 0 1 1.6-1 5 5 0 0 1 1.9-.4h383.4a5 5 0 0 1 3.5 1.4 5 5 0 0 1 1.5 3.6v59.8c0 .7-.2 1.3-.4 2a5 5 0 0 1-1 1.6 5 5 0 0 1-1.7 1 5 5 0 0 1-2 .4H18.4a4.9 4.9 0 0 1-2-.3 4.9 4.9 0 0 1-1.5-1.1 4.9 4.9 0 0 1-1.1-1.6 5 5 0 0 1-.4-2Zm0 0"/>
</clipPath>
</defs>
<path fill="#fff" stroke="#d0d7de" stroke-width=".83" d="M13.7 423.3v-67.4a4.5 4.5 0 0 1 .4-1.7 4 4 0 0 1 .4-.8 4.6 4.6 0 0 1 2-1.7 4.4 4.4 0 0 1 1.8-.3h383.4a4.5 4.5 0 0 1 1.7.3 4.4 4.4 0 0 1 1.5 1 4.5 4.5 0 0 1 1.4 3.2v67.4l-.1.9a4.4 4.4 0 0 1-.7 1.6 4.6 4.6 0 0 1-2 1.7 4.5 4.5 0 0 1-1.8.4H18.3a4.4 4.4 0 0 1-1.7-.4 4.4 4.4 0 0 1-.8-.4 4.6 4.6 0 0 1-1.3-1.3 4.4 4.4 0 0 1-.4-.8 4.5 4.5 0 0 1-.4-1.7Zm0 0"/>
<text x="182.56" y="415.82" fill="#0969da">View code</text>
<path fill="none" stroke="#1b1f24" stroke-opacity=".15" stroke-width=".83" d="M13.72 332.66v-16.64a4.53 4.53 0 0 1 .77-2.54 4.8 4.8 0 0 1 1.26-1.26c.25-.16.52-.3.8-.42a4.6 4.6 0 0 1 1.75-.35h118.92a4.56 4.56 0 0 1 1.75.35 4.59 4.59 0 0 1 1.49.99 4.9 4.9 0 0 1 .99 1.48 4.53 4.53 0 0 1 .35 1.75v16.64a4.6 4.6 0 0 1-1.34 3.23 4.62 4.62 0 0 1-1.49 1 4.56 4.56 0 0 1-1.75.34H18.3c-.3 0-.6-.03-.9-.09a4.7 4.7 0 0 1-1.65-.68 4.63 4.63 0 0 1-1.26-1.26 4.41 4.41 0 0 1-.42-.8 4.41 4.41 0 0 1-.35-1.74Zm0 0"/>
<path fill="#57606a" fill-rule="evenodd" d="M37.2 320.6a.6.6 0 0 0-.4.2.6.6 0 0 0-.2.4.6.6 0 0 0 .6.7.6.6 0 0 0 .5-.2.6.6 0 0 0 .1-.5.6.6 0 0 0-.1-.4.6.6 0 0 0-.5-.2Zm-1.9.6c0-.2 0-.4.2-.6a1.9 1.9 0 0 1 2.2-1.2 1.9 1.9 0 0 1 1.3 1.4v.7a1.9 1.9 0 0 1-.6 1.2 1.9 1.9 0 0 1-.6.3v.5a2 2 0 0 1-.6 1.5 2 2 0 0 1-.7.4l-.7.2h-3.4a.8.8 0 0 0-.5.2.8.8 0 0 0-.3.6v1a1.8 1.8 0 0 1 1 .8 1.8 1.8 0 0 1 .3.8 1.8 1.8 0 0 1-.2.9 1.8 1.8 0 0 1-.5.7l-.4.2a1.8 1.8 0 0 1-1.7 0 2 2 0 0 1-.6-.6 2.1 2.1 0 0 1-.2-.3 2 2 0 0 1-.2-.5 2 2 0 0 1 0-.4 1.8 1.8 0 0 1 .5-1.2l.4-.2.4-.2V323a1.8 1.8 0 0 1-.4-.2 1.8 1.8 0 0 1-.4-.3 1.8 1.8 0 0 1-.4-.7 1.8 1.8 0 0 1 0-.4 1.8 1.8 0 0 1 .3-1.3 2 2 0 0 1 1-.7 1.8 1.8 0 0 1 1 0 1.8 1.8 0 0 1 .7.4l.3.3a2 2 0 0 1 .3.8v.5a1.8 1.8 0 0 1-.2.8 1.8 1.8 0 0 1-.6.6 1.7 1.7 0 0 1-.4.2v1.5a2 2 0 0 1 .8-.2h3.4a.8.8 0 0 0 .6-.2.8.8 0 0 0 .2-.6v-.5a1.8 1.8 0 0 1-1-.7 1.8 1.8 0 0 1-.3-1Zm-4.3 7.3a.6.6 0 0 0-.5.2.6.6 0 0 0-.1.4l.1.5a.6.6 0 0 0 .5.1.6.6 0 0 0 .4-.1.6.6 0 0 0 .2-.5.6.6 0 0 0-.2-.4.6.6 0 0 0-.4-.2Zm-.7-7.3a.6.6 0 0 1 .2-.4.6.6 0 0 1 .5-.2.6.6 0 0 1 .4.2.6.6 0 0 1 .2.4.6.6 0 0 1-.2.5.6.6 0 0 1-.4.2.6.6 0 0 1-.5-.2.6.6 0 0 1-.1-.5Zm0 0"/>
<text x="47.1" y="327.67" fill="#24292f" font-weight="500">d8b7302147</text>
<path fill="none" stroke="#1b1f24" stroke-opacity=".15" stroke-width=".83" d="M365.5 332.7V316a4.5 4.5 0 0 1 .8-2.5 4.8 4.8 0 0 1 1.2-1.3l.8-.4a4.6 4.6 0 0 1 1.8-.3h31.6a4.5 4.5 0 0 1 2.5.7 4.5 4.5 0 0 1 2 3v18.4a4.4 4.4 0 0 1-.3.8 5 5 0 0 1-.4.8 4.6 4.6 0 0 1-2 1.7 4.5 4.5 0 0 1-1.8.3H369a4.7 4.7 0 0 1-1.6-.7 4.6 4.6 0 0 1-1.2-1.3 4.4 4.4 0 0 1-.5-.8 4.4 4.4 0 0 1-.3-1.7Zm0 0"/>
<path fill="#57606a" d="M385.9 326a1.3 1.3 0 0 0 1.1-.8 1.3 1.3 0 0 0 0-1 1.2 1.2 0 0 0-.6-.6 1.2 1.2 0 0 0-.5 0h-.5a1.2 1.2 0 0 0-.7.7 1.3 1.3 0 0 0 .7 1.6l.5.1Zm-5.4 0a1.3 1.3 0 0 0 1.1-.8 1.3 1.3 0 0 0 0-1 1.2 1.2 0 0 0-.7-.6 1.2 1.2 0 0 0-.4 0h-.5a1.2 1.2 0 0 0-.7.7 1.3 1.3 0 0 0 .7 1.6l.5.1Zm10.8 0a1.3 1.3 0 0 0 1.1-.8 1.3 1.3 0 0 0 0-1 1.2 1.2 0 0 0-.6-.6 1.2 1.2 0 0 0-.5 0 1.2 1.2 0 0 0-.5 0 1.2 1.2 0 0 0-.7.7 1.2 1.2 0 0 0 0 .5v.4a1.2 1.2 0 0 0 .7.7l.5.1Zm0 0"/>
<path fill="#F6F8FA" stroke="#d0d7de" stroke-width=".8" d="M13.7 396.3v-40.4a4.5 4.5 0 0 1 .4-1.7 4 4 0 0 1 .4-.8 4.6 4.6 0 0 1 2-1.7 4.4 4.4 0 0 1 1.8-.3h383.4a4.5 4.5 0 0 1 1.7.3 4.4 4.4 0 0 1 1.5 1 4.5 4.5 0 0 1 1.4 3.2v40.4Zm0 0"/>
<text x="54.1" y="377.6" fill="#24292f" font-weight="600">kkocdko</text>
<path fill="#AFB8C1" fill-opacity=".2" d="M109 378.4v-8.3c0-.3 0-.4.2-.6a.8.8 0 0 1 .6-.2h15a.8.8 0 0 1 .8.8v8.3a.8.8 0 0 1-.3.6.8.8 0 0 1-.6.2h-15a.8.8 0 0 1-.5-.2.8.8 0 0 1-.3-.6Zm0 0"/>
<text x="112.83" y="375.07" fill="#24292f" font-size="10.66">...</text>
<text x="281.95" y="377.57" fill="#57606a">on Jun 12, 2022</text>
<path fill="#24292f" fill-rule="evenodd" d="m380.6 371-1-1a.2.2 0 0 0-.2 0 .2.2 0 0 0-.2.2v3l.2.2h3l.3-.1a.2.2 0 0 0 0-.3l-1.2-1 .8-1a5.3 5.3 0 0 1 1-.7 5.5 5.5 0 0 1 2.4-.6 5.3 5.3 0 0 1 2.5.5 5.3 5.3 0 0 1 2.6 2.6 5.3 5.3 0 0 1 .5 2.4c0 .4 0 .8-.2 1.2a5.3 5.3 0 0 1-1.2 2.2 5.2 5.2 0 0 1-.9.9 5.2 5.2 0 0 1-1 .6 5 5 0 0 1-1.3.3 5.3 5.3 0 0 1-2.5-.2 5.3 5.3 0 0 1-2-1.3 5.2 5.2 0 0 1-.9-1 5.2 5.2 0 0 1-.5-1 5.5 5.5 0 0 1-.3-1.3.6.6 0 0 0-.2-.4.6.6 0 0 0-.5-.1.6.6 0 0 0-.4.2.6.6 0 0 0-.1.5 6.4 6.4 0 0 0 1 2.8c.2.5.5.9 1 1.2a6.7 6.7 0 0 0 5.5 1.9 6.7 6.7 0 0 0 2.9-1.2 6.7 6.7 0 0 0 2.3-8.1 6.4 6.4 0 0 0-.8-1.3 6.6 6.6 0 0 0-3.8-2.5 6.6 6.6 0 0 0-1.5-.2 6.4 6.4 0 0 0-1.5.2 6.5 6.5 0 0 0-2.7 1.3l-1.1 1.1Zm5 .7a.6.6 0 0 1 .5.2.6.6 0 0 1 .2.5v2.5l1.7.6a.6.6 0 0 1 .3.4.6.6 0 0 1 0 .4.6.6 0 0 1-.3.4.6.6 0 0 1-.5 0l-2-.8a.6.6 0 0 1-.5-.6v-3l.2-.4a.6.6 0 0 1 .5-.1Zm0 0"/>
<path fill="#1A7F37" fill-rule="evenodd" d="M273.4 372a.6.6 0 0 1 .2.4.6.6 0 0 1-.2.4l-6 6a.6.6 0 0 1-.4.2.6.6 0 0 1-.5-.2l-2.7-2.7a.6.6 0 0 1-.1-.4.6.6 0 0 1 .1-.4.6.6 0 0 1 .5-.2.6.6 0 0 1 .4.1l2.3 2.3 5.6-5.6a.6.6 0 0 1 .4-.2.6.6 0 0 1 .4.2Zm0 0"/>
<g clip-path="url(#a)">
<image xlink:href='data:image/svg+xml,%3Csvg xmlns="http://www.w3.org/2000/svg" viewBox="0 0 1000 1000" style="background%3A%23333c3e"%3E%3Cpath d="M-40 1000L0 0h960z" fill="%23009083"/%3E%3Cpath d="M-40 1000l318-318L0 200z" fill="%2323b39b"/%3E%3Cpath d="M-40 1000l318-318L0 521z" fill="%2395e9dd"/%3E%3Cpath d="M-40 1000l318-318 184 318z" fill="%23698287"/%3E%3Cpath d="M490 710L1200 0H80z" fill="%23027e63"/%3E%3Cpath d="M490 710L1200 0h360L718 842z" fill="%2338574c"/%3E%3C/svg%3E' width="48" height="48" transform="matrix(.42 0 0 .42 24.12 363.43)"/>
</g>
<g clip-path="url(#b)">
<g transform="translate(13 227)">
<path fill="#fff8C5" d="M.3.87h393.37v69.86H.3Zm0 0"/>
<path fill="#D4A72C" fill-opacity=".4" fill-rule="evenodd" d="M394.63-.07H-.63v71.74h395.26ZM1.13 5.86v59.88c0 .27.03.54.09.81a4.1 4.1 0 0 0 .62 1.5 4.3 4.3 0 0 0 1.15 1.14c.22.16.46.29.72.39a4.16 4.16 0 0 0 1.59.32h383.38a4.16 4.16 0 0 0 1.6-.32 4.24 4.24 0 0 0 1.35-.9 4.24 4.24 0 0 0 .9-1.35 4.16 4.16 0 0 0 .31-1.6V5.87a4 4 0 0 0-.08-.8 4.1 4.1 0 0 0-.24-.79 3.84 3.84 0 0 0-.38-.72 4.45 4.45 0 0 0-.52-.63 4.24 4.24 0 0 0-1.35-.9 4.16 4.16 0 0 0-.77-.24 4.37 4.37 0 0 0-.82-.08H5.3a4.37 4.37 0 0 0-.82.08 4.16 4.16 0 0 0-.77.24c-.26.1-.5.23-.73.38a4.42 4.42 0 0 0-.62.52 4.45 4.45 0 0 0-.52.63 4.1 4.1 0 0 0-.7 2.31Zm0 0"/>
</g>
</g>
<path fill="#9A6700" fill-rule="evenodd" d="M34.28 250.12a.2.2 0 0 0-.18-.1.2.2 0 0 0-.19.1l-5.05 9.46a.19.19 0 0 0 0 .2c.04.07.1.1.18.1h10.12a.19.19 0 0 0 .17-.1.19.19 0 0 0 .01-.2Zm-1.47-.59a1.46 1.46 0 0 1 2.57 0l5.06 9.47a1.41 1.41 0 0 1 .11 1.09 1.27 1.27 0 0 1-.15.34 1.4 1.4 0 0 1-.53.52c-.1.06-.22.1-.34.14a1.33 1.33 0 0 1-.37.05H29.04a1.33 1.33 0 0 1-.37-.05 1.33 1.33 0 0 1-.35-.14 1.3 1.3 0 0 1-.3-.23 1.5 1.5 0 0 1-.38-.63 1.47 1.47 0 0 1-.02-.75c.03-.12.07-.23.14-.34Zm2.12 8.28a.8.8 0 0 1-.25.59.8.8 0 0 1-.58.24.81.81 0 0 1-.6-.24.81.81 0 0 1-.23-.6.8.8 0 0 1 .24-.58.8.8 0 0 1 .59-.24c.23 0 .42.08.58.24.17.16.25.36.25.59Zm-.2-4.37a.6.6 0 0 0-.2-.44.59.59 0 0 0-.43-.18.59.59 0 0 0-.44.18.6.6 0 0 0-.19.44v2.08a.64.64 0 0 0 .63.63.6.6 0 0 0 .44-.18.61.61 0 0 0 .18-.45Zm0 0"/>
<text x="50.73" y="257.81" fill="#24292f">This commit does not belong to any branch on this repository,</text>
<text x="50.73" y="275.27" fill="#24292f">and may belong to a fork outside of the repository.</text>
<path fill="#24292f" d="m121.4 322.7 3.4 3.3 3.2-3.3"/>
</svg>