<svg xmlns="http://www.w3.org/2000/svg" viewBox="0 0 160 160"><path fill="#3f51b5" d="M0 40S0 0 40 0h80s40 0 40 40v80s0 40-40 40H40s-40 0-40-40V40z"/><path fill="#fff" d="M38 136c-7.747 0-14-6.253-14-14s6.253-14 14-14 14 6.253 14 14-6.253 14-14 14zm0-84c-7.747 0-14-6.253-14-14s6.253-14 14-14 14 6.253 14 14-6.253 14-14 14zm42 42c-7.747 0-14-6.253-14-14s6.253-14 14-14 14 6.253 14 14-6.253 14-14 14zm42 42c-7.747 0-14-6.253-14-14s6.253-14 14-14 14 6.253 14 14-6.253 14-14 14zm0-84c-7.747 0-14-6.253-14-14s6.253-14 14-14 14 6.253 14 14-6.253 14-14 14z"/></svg>