<svg xmlns="http://www.w3.org/2000/svg" viewBox="0 0 1000 1000" width="1000px" height="1000px"><path fill="#6200ee" d="M0 0h1000v1000H0z"/><path fill="#fff" d="M299.64 767.15a66.7 66.7 0 01-66.79-66.79 66.7 66.7 0 0166.79-66.79 66.7 66.7 0 0166.79 66.8 66.7 66.7 0 01-66.8 66.78zm0-400.72a66.7 66.7 0 01-66.79-66.8 66.7 66.7 0 0166.79-66.78 66.7 66.7 0 0166.79 66.79 66.7 66.7 0 01-66.8 66.79zM500 566.79A66.7 66.7 0 01433.21 500 66.7 66.7 0 01500 433.21 66.7 66.7 0 01566.79 500 66.7 66.7 0 01500 566.79zm200.36 200.36a66.7 66.7 0 01-66.79-66.79 66.7 66.7 0 0166.8-66.79 66.7 66.7 0 0166.78 66.8 66.7 66.7 0 01-66.79 66.78zm0-400.72a66.7 66.7 0 01-66.79-66.8 66.7 66.7 0 0166.8-66.78 66.7 66.7 0 0166.78 66.79 66.7 66.7 0 01-66.79 66.79z"/></svg>