<svg xmlns="http://www.w3.org/2000/svg" viewBox="0 0 160 160"><path fill="#3f51b5" d="M0 40S0 0 40 0h80s40 0 40 40v80s0 40-40 40H40s-40 0-40-40V40z"/><path fill="#fff" d="M25.458 65.233h5.456V76.14h5.456v5.455h5.45v5.451h10.912v-5.45h5.455v-5.451h10.907v-5.46h5.455v-5.452H80V27.05h5.46v-5.446l5.451-.015v16.377h5.451v-5.456h-5.45V21.588l27.273.01h10.906v5.456h5.45v27.273h-27.268v5.45h16.362v5.456h-21.812V76.14h10.906v10.912h-5.45v-5.456h-5.461v16.357h-5.451v10.911h-5.45v5.451H85.46v21.818h5.45v5.455H80.005v-16.362h-5.45v-5.45h-5.466v5.45h-5.451v5.451h-5.45v5.456h5.45v5.455H52.737V119.77h-5.461v-5.451h-5.45v-5.456h-5.451v-5.455h-5.466v-5.45h-5.45z"/></svg>