<svg xmlns="http://www.w3.org/2000/svg" viewBox="0 0 24 24"><path d="M1.09 8.728h1.091v2.181h1.091V12h1.09v1.09h2.182V12h1.091v-1.09h2.181V9.818h1.091v-1.09h1.09V1.092h1.092V.003L14.179 0v3.275h1.09V2.184h-1.09V0l5.454.002h2.181v1.091h1.09v5.454h-5.453v1.09h3.272v1.091h-4.362v2.181h2.181v2.182h-1.09V12H16.36v3.271H15.27v2.182h-1.09v1.09h-1.091v4.363h1.09v1.091h-2.181v-3.272h-1.09v-1.09H9.815v1.09h-1.09v1.09H7.635v1.091h1.09v1.091h-2.18v-4.363H5.453v-1.09H4.363v-1.091h-1.09v-1.091H2.18v-1.09h-1.09z"/></svg>