<svg xmlns="http://www.w3.org/2000/svg" shape-rendering="crispEdges" viewBox="0 0 100 100"><path fill="#5ab28d" d="M0 0v5.708l15.495 6.981L28.93 0z"/><path fill="#027e63" d="M15.495 12.69l31.284 55.95L100 18.38V0H28.931z"/><path fill="#334f45" d="M46.779 68.64l27.286 12.295L100 56.443V18.379z"/><path fill="#7ac8b1" d="M0 23.832l2.502 1.127 12.993-12.27L0 5.708z"/><path fill="#009083" d="M27.113 68.975l12.993-12.27L15.495 12.69 2.502 24.96z"/><path fill="#20a48e" d="M0 56.759l27.113 12.216L2.503 24.96 0 23.832z"/><path fill="#b1f3e9" d="M0 94.58l27.113-25.605L0 56.76z"/><path fill="#89c6b4" d="M24.178 100L13.84 81.51 0 94.58V100z"/><path fill="#698287" d="M44.46 100L27.113 68.975 13.84 81.511 24.178 100z"/><path fill="#333c3e" d="M100 56.443V100H44.46L27.113 68.975l12.993-12.27 6.673 11.935 27.286 12.295z"/></svg>