<svg xmlns="http://www.w3.org/2000/svg" viewBox="0 0 1000 1000" width="1000px" height="1000px"><path fill="#6200ee" d="M0 0h1000v1000H0z"/><path fill="#fff" d="M546.41 170s22.9 82 22.9 148.52c0 63.74-41.77 115.57-105.67 115.57s-112.16-51.67-112.16-115.57l.77-11.14c-62.2 74.42-99.79 170.34-99.79 275.08C252.46 719.23 363.23 830 500 830c136.77 0 247.54-110.77 247.54-247.54 0-166.93-80.3-315.77-201.13-412.46zm-55.38 567.17c-55.08 0-99.8-43.47-99.8-97.16 0-50.28 32.34-85.55 87.11-96.54 54.77-10.98 111.4-37.28 142.8-79.67a431.58 431.58 0 0118.41 124.85c0 81.84-66.53 148.52-148.52 148.52z"/></svg>